<?xml version="1.0" encoding="UTF-8"?>
<svg version="1.1" xmlns="http://www.w3.org/2000/svg" width="1024" height="1024">
    <path d="M0 0 C4.6174945 1.22784861 6.88031268 2.49373389 9.8125 6.25 C15.92963816 13.41546127 20.97728343 16.8332298 30.375 18.3125 C36.54816811 19.44878821 36.54816811 19.44878821 38.52734375 21.86328125 C39.36730993 24.28288532 39.76020431 26.45166273 40 29 C40.08636719 29.71542969 40.17273438 30.43085938 40.26171875 31.16796875 C40.42439823 32.63208404 40.56675416 34.09856428 40.69140625 35.56640625 C41.04777275 38.37673952 41.71415984 41.01138377 42.4375 43.75 C43.85958675 49.1553103 44.73661662 54.53405487 45.52734375 60.0625 C46.08108518 63.50393432 46.92235069 66.6900771 48 70 C48.44730469 69.61328125 48.89460938 69.2265625 49.35546875 68.828125 C50.61074047 67.74682484 51.87007203 66.67022496 53.1328125 65.59765625 C54.62929593 64.31719239 56.10033412 63.00701555 57.5625 61.6875 C60.40119365 59.72225055 62.59333848 59.31689875 66 59 C71.9006375 67.13331114 75.93579116 75.96350158 80.14453125 85.05078125 C83.29941494 91.75961507 86.64215977 97.99324726 91 104 C91.94875 103.236875 92.8975 102.47375 93.875 101.6875 C94.40867187 101.25824219 94.94234375 100.82898438 95.4921875 100.38671875 C97.25292107 98.87729455 97.25292107 98.87729455 99 96 C100.98828125 94.83203125 100.98828125 94.83203125 103.3125 93.8125 C104.07175781 93.46832031 104.83101562 93.12414062 105.61328125 92.76953125 C108.34906212 91.8874546 110.13558373 91.69100663 113 92 C115.28027344 93.56665039 115.28027344 93.56665039 117.609375 95.78515625 C118.48013672 96.60902832 119.35089844 97.43290039 120.24804688 98.28173828 C123.98540893 101.97334484 127.68363673 105.70099888 131.34912109 109.46386719 C139.58717262 117.91833232 147.62446899 125.96446002 157.6484375 132.328125 C160 134 160 134 161 137 C161.85980469 137.28359375 162.71960938 137.5671875 163.60546875 137.859375 C167.85204256 139.28630199 170.79130504 141.54260033 174.3125 144.25 C175.64997054 145.25533283 176.98850601 146.25925054 178.328125 147.26171875 C179.28428711 147.97980713 179.28428711 147.97980713 180.25976562 148.71240234 C182.31644001 150.23413364 184.41976412 151.66488844 186.5625 153.0625 C190.61412345 155.71943 194.59786135 158.46549602 198.5625 161.25 C199.19551025 161.68707275 199.82852051 162.12414551 200.48071289 162.57446289 C202.02418785 163.66571222 203.5173819 164.82740304 205 166 C205 166.66 205 167.32 205 168 C205.86625 168.2475 206.7325 168.495 207.625 168.75 C212.60640353 170.59496427 216.28486082 173.28486082 220 177 C221.41801416 177.94744354 222.83693373 178.89357058 224.26123047 179.83154297 C229.36904882 183.26400838 234.27026315 187.00918827 239.21142578 190.67529297 C240.76006639 191.82229323 242.31501564 192.96076653 243.87109375 194.09765625 C247.79745762 197.03114649 250.91584977 199.4148695 253 204 C250.9067596 208.07631025 249.10389897 209.97016077 245 212 C242.3238402 212.36733413 242.3238402 212.36733413 239.37780094 212.35631943 C237.68634263 212.3609791 237.68634263 212.3609791 235.96071345 212.36573291 C234.10844909 212.34781188 234.10844909 212.34781188 232.21876526 212.32952881 C230.90177436 212.3287141 229.58478347 212.32789938 228.22788376 212.32705998 C224.56824839 212.32437598 220.90892728 212.30286073 217.24938214 212.27831292 C213.29514364 212.25507618 209.34087482 212.2492557 205.38658142 212.24128723 C197.59979193 212.2228574 189.81315027 212.18835708 182.02644265 212.14880887 C172.82089361 212.10277572 163.61531266 212.07363777 154.40969514 212.04523364 C137.80505619 211.99350809 121.20050121 211.92789417 104.59594727 211.85400391 C88.81895145 211.78382013 73.04195509 211.7206897 57.26489258 211.66748047 C55.83517877 211.66264586 55.83517877 211.66264586 54.37658186 211.65771359 C50.53460869 211.64473668 46.69263539 211.63180046 42.85066191 211.61891422 C5.87730674 211.49479067 -31.09583243 211.34062336 -68.06894493 211.15810394 C-71.75191609 211.1399566 -75.43488743 211.12184558 -79.11785889 211.10375977 C-80.02482593 211.099297 -80.93179297 211.09483424 -81.86624385 211.09023625 C-96.39490055 211.0190315 -110.92357991 210.95979809 -125.45230969 210.90577981 C-139.9388699 210.85174683 -154.42534956 210.78718841 -168.91181165 210.71119905 C-177.53142365 210.66628898 -186.15098173 210.6295569 -194.77067386 210.60419333 C-200.52959446 210.58640569 -206.2883949 210.55781807 -212.04722042 210.52026904 C-215.33458029 210.49913919 -218.62174545 210.48446386 -221.90917516 210.47955227 C-225.44152467 210.47354329 -228.9732839 210.44943017 -232.50550842 210.42047119 C-233.5377488 210.42308291 -234.56998918 210.42569463 -235.63350958 210.4283855 C-236.56959242 210.41693287 -237.50567526 210.40548025 -238.47012424 210.39368057 C-239.27869895 210.39004572 -240.08727365 210.38641087 -240.92035061 210.38266587 C-243.53831941 209.90094654 -244.437166 209.13018071 -246 207 C-246.21155802 203.40351365 -245.74618393 201.04678946 -243.6328125 198.08203125 C-238.17782606 192.21733553 -231.4170515 188.22428187 -224.66601562 184.04638672 C-218.75863817 180.3360966 -213.17916552 176.14966743 -207.625 171.9375 C-202.31850859 167.92875489 -196.8978804 164.10832148 -191.4375 160.3125 C-177.01172537 150.25722299 -162.84848969 140.08721839 -149.65283203 128.44677734 C-146.2826498 125.49674782 -142.8494273 122.61975198 -139.4140625 119.74609375 C-137.18179483 117.87386925 -134.98935444 115.98986417 -132.87890625 113.98046875 C-130.24640534 111.47695452 -128.39715738 110.0856614 -124.8125 109.3125 C-119.17584745 110.32894554 -114.18468366 112.6162374 -109 115 C-109.061875 114.05125 -109.12375 113.1025 -109.1875 112.125 C-109.125625 111.09375 -109.06375 110.0625 -109 109 C-108.01 108.34 -107.02 107.68 -106 107 C-105.35333141 105.40034611 -104.70865212 103.79985827 -104.07421875 102.1953125 C-101.16052452 96.24078102 -96.71199521 90.81520905 -92.25 85.9375 C-89.20774144 81.96566244 -87.65852692 77.68834984 -86 73 C-85.34 73 -84.68 73 -84 73 C-83.773125 72.195625 -83.54625 71.39125 -83.3125 70.5625 C-82 68 -82 68 -80.0078125 67.1015625 C-75.3547547 66.94444626 -71.7435461 68.91026886 -67.5625 70.8125 C-65.89800041 71.55013207 -64.23265352 72.28585557 -62.56640625 73.01953125 C-61.78410645 73.36580566 -61.00180664 73.71208008 -60.19580078 74.06884766 C-57.5113224 75.20722886 -54.78641893 76.14368589 -52 77 C-51.88724731 76.13387085 -51.88724731 76.13387085 -51.7722168 75.25024414 C-45.61384236 28.25016353 -45.61384236 28.25016353 -39 23 C-36.16015625 22.05859375 -36.16015625 22.05859375 -33.0625 21.4375 C-28.74750019 20.5592257 -25.70636999 19.36984926 -22 17 C-20.845 16.54625 -19.69 16.0925 -18.5 15.625 C-14.65111779 13.83801898 -12.88870259 12.09023998 -10 9 C-8.24000219 7.38395263 -6.46824017 5.78066221 -4.6875 4.1875 C-3.80449219 3.39730469 -2.92148437 2.60710937 -2.01171875 1.79296875 C-1.34785156 1.20128906 -0.68398438 0.60960937 0 0 Z M0 25 C-0.680625 25.70125 -1.36125 26.4025 -2.0625 27.125 C-6.37430364 31.54928548 -11.23797808 35.37506421 -17.33203125 36.75390625 C-21.29414523 37.67439738 -23.78307063 38.47622116 -27 41 C-29.5981012 46.60022677 -29.95545048 53.04618661 -30.640625 59.11181641 C-31.21225263 63.7058075 -32.1355342 68.21677988 -33.0625 72.75 C-33.21340088 73.54607666 -33.36430176 74.34215332 -33.51977539 75.16235352 C-36.24928063 89.1571375 -36.24928063 89.1571375 -40.375 93.5 C-45.83410911 96.61949092 -52.28045898 96.95627599 -58.33984375 95.3984375 C-61.56435767 94.33611844 -64.65864006 93.15516361 -67.75 91.75 C-70.65616959 90.7812768 -72.09061059 91.06266764 -75 92 C-76.95365481 93.97518509 -76.95365481 93.97518509 -78.55859375 96.55859375 C-79.19216797 97.50283203 -79.82574219 98.44707031 -80.47851562 99.41992188 C-81.12498047 100.41572266 -81.77144531 101.41152344 -82.4375 102.4375 C-83.08009766 103.39849609 -83.72269531 104.35949219 -84.38476562 105.34960938 C-87.45328547 109.969523 -90.40612824 114.63710932 -93.23046875 119.41015625 C-101.03706649 132.5440087 -101.03706649 132.5440087 -108 134.6875 C-111.57964134 135.25603127 -114.53843407 134.66293437 -117.9453125 133.5078125 C-120.79019284 132.80470519 -123.07552822 132.70643803 -126 133 C-128.63835029 134.54989963 -128.63835029 134.54989963 -131.0625 136.8125 C-132.01898438 137.6375 -132.97546875 138.4625 -133.9609375 139.3125 C-134.9739717 140.20831822 -135.98699238 141.10415173 -137 142 C-151.78673437 154.82980697 -167.49816516 166.1785264 -183.5847168 177.31982422 C-185.25479531 178.48160329 -186.92003032 179.65036476 -188.58129883 180.82470703 C-194.33101145 184.88722225 -200.16757191 188.59926812 -206.21484375 192.203125 C-208.49878795 193.67663739 -210.30307471 194.89510313 -212 197 C-212 197.66 -212 198.32 -212 199 C-206.592406 199.14910645 -201.18602644 199.25756999 -195.77685547 199.32958984 C-193.93972918 199.35963253 -192.10274478 199.40048019 -190.26611328 199.45263672 C-187.61455176 199.52601145 -184.96489684 199.55957987 -182.3125 199.5859375 C-181.50071289 199.61690521 -180.68892578 199.64787292 -179.85253906 199.67977905 C-173.2697741 199.68360268 -169.83266767 197.27809788 -165 193 C-163.8053998 192.0436811 -162.60684375 191.09225698 -161.40234375 190.1484375 C-159.66472326 188.75990126 -157.9296564 187.36864748 -156.20117188 185.96875 C-152.87092248 183.31653788 -149.53636843 181.09277628 -145.79321289 179.03271484 C-142.46463564 177.11578063 -139.37319864 174.85569726 -136.25 172.625 C-135.52047119 172.10679687 -134.79094238 171.58859375 -134.03930664 171.0546875 C-117.56022808 159.3051482 -101.32237584 147.1914573 -85.29077148 134.83886719 C-74.33790868 126.41451122 -74.33790868 126.41451122 -69.8125 123.1875 C-69.20019531 122.74792969 -68.58789062 122.30835938 -67.95703125 121.85546875 C-65.09570916 120.60471119 -63.09501766 120.61895511 -60 121 C-57.24609375 122.65234375 -57.24609375 122.65234375 -54.4375 124.9375 C-53.40367187 125.75476563 -52.36984375 126.57203125 -51.3046875 127.4140625 C-50.76682617 127.84106445 -50.22896484 128.26806641 -49.67480469 128.70800781 C-46.88510017 130.86006559 -43.97596884 132.83297999 -41.0625 134.8125 C-38.02115658 136.88151801 -35.16134716 138.85387891 -32.43359375 141.32421875 C-30.14338423 143.23886056 -30.14338423 143.23886056 -27.45703125 143.0078125 C-24.44503352 141.77236669 -22.89799461 140.25926292 -20.6875 137.875 C-18.04750943 135.05445554 -15.36297623 132.41853812 -12.4296875 129.91015625 C-7.37390057 125.53528537 -2.66896947 120.81917876 2.0456543 116.0847168 C3.5599258 114.56508332 5.0794743 113.05087483 6.59960938 111.53710938 C11.41439457 106.72487933 16.08464545 101.84814051 20.51342773 96.67358398 C22.5928736 94.33254253 24.88007072 92.29201454 27.25 90.25 C30.23129864 87.67608378 32.75140762 85.24147733 35 82 C34.74831055 81.50298584 34.49662109 81.00597168 34.23730469 80.49389648 C22.77597519 57.65790657 22.77597519 57.65790657 21.74609375 44.83984375 C21.49530717 41.88215434 21.2635415 39.69189276 20 37 C17.11034185 34.98599583 14.24667709 33.68613338 10.9921875 32.34765625 C6.99904864 30.54917987 4.90544253 28.21127859 2 25 C1.34 25 0.68 25 0 25 Z M50.875 91.5 C50.26188965 91.98049805 49.6487793 92.46099609 49.01708984 92.95605469 C43.17099733 97.65825048 37.90233421 102.87130493 32.68310547 108.25195312 C28.8752271 112.1746863 24.97134756 115.85881644 20.79321289 119.38720703 C18.40797347 121.53246117 16.40167561 123.91577789 14.35546875 126.37890625 C10.58535454 130.88783247 6.39534445 134.27305463 1.57421875 137.5703125 C1.05472656 138.04210937 0.53523437 138.51390625 0 139 C0 139.99 0 140.98 0 142 C-0.55171875 142.23460937 -1.1034375 142.46921875 -1.671875 142.7109375 C-4.59325764 144.32848158 -6.79574497 146.36450195 -9.25 148.625 C-10.14203125 149.44226563 -11.0340625 150.25953125 -11.953125 151.1015625 C-12.62859375 151.72804688 -13.3040625 152.35453125 -14 153 C-10.57733301 156.74572484 -6.70261868 159.40887542 -2.5 162.1875 C-1.50419922 162.86329102 -1.50419922 162.86329102 -0.48828125 163.55273438 C0.48044922 164.19758789 0.48044922 164.19758789 1.46875 164.85546875 C2.05076172 165.24371826 2.63277344 165.63196777 3.23242188 166.03198242 C5.2013158 167.11025098 6.77120253 167.70392156 9 168 C13.93851719 165.59701089 18.16596997 162.50401411 22.4375 159.0625 C23.02950195 158.59158936 23.62150391 158.12067871 24.23144531 157.63549805 C30.29963404 152.79501869 36.31660843 147.89015672 42.33203125 142.984375 C45.18592613 140.65838912 48.05491835 138.35290443 50.9375 136.0625 C52.62646804 134.71016477 54.31369621 133.35565599 56 132 C56.67836914 131.45633789 57.35673828 130.91267578 58.05566406 130.35253906 C60.39706735 128.47124991 62.7303082 126.58019207 65.0625 124.6875 C66.20803345 123.77013062 66.20803345 123.77013062 67.37670898 122.83422852 C68.08899658 122.25342529 68.80128418 121.67262207 69.53515625 121.07421875 C70.178479 120.55432373 70.82180176 120.03442871 71.48461914 119.4987793 C73.26239215 117.96637874 73.26239215 117.96637874 74 115 C72.91486072 112.79053585 71.78712958 110.77450504 70.5 108.6875 C66.29156431 101.62414241 62.59555338 94.39335664 59 87 C55.65784021 87 53.41086511 89.50768331 50.875 91.5 Z M102.10546875 117.7109375 C101.32123535 118.29133789 100.53700195 118.87173828 99.72900391 119.46972656 C98.89030762 120.0984668 98.05161133 120.72720703 97.1875 121.375 C96.32817871 122.01405273 95.46885742 122.65310547 94.58349609 123.31152344 C88.68991142 127.70498304 82.83609599 132.14744763 77.02734375 136.65234375 C74.45837284 138.64453925 71.87666174 140.61874081 69.29077148 142.58886719 C63.09350709 147.31868128 57.05325712 152.21803897 51.03222656 157.16967773 C46.62317 160.76466464 42.10645039 164.12662403 37.4375 167.375 C28.53021896 173.27544934 28.53021896 173.27544934 23 182 C23.66386719 182.37511719 24.32773437 182.75023437 25.01171875 183.13671875 C30.94449064 186.57512815 35.88534304 189.75005485 39.6953125 195.60546875 C42.7732257 198.80336839 44.63104595 198.65743741 49 198.75 C55.8249176 198.952434 55.8249176 198.952434 57.84355354 199.50085258 C60.54774584 200.1267854 63.03902322 200.1259699 65.81564331 200.12698364 C67.00413376 200.12980347 68.19262421 200.13262329 69.41712952 200.13552856 C70.71790939 200.13350433 72.01868927 200.1314801 73.35888672 200.12939453 C74.74561102 200.13074997 76.13233497 200.13253071 77.51905823 200.13470459 C81.28617913 200.13926617 85.05327266 200.13749346 88.82039404 200.1343255 C92.77366553 200.13179029 96.72693471 200.13414315 100.6802063 200.13571167 C107.32977721 200.1375321 113.97933702 200.13513259 120.62890625 200.13037109 C128.28586216 200.12495108 135.94279135 200.12667511 143.59974658 200.1321975 C150.19107663 200.13675906 156.7823987 200.1373637 163.37372983 200.13475883 C167.30216541 200.13320983 171.23058853 200.13296369 175.15902328 200.13629532 C178.8641145 200.1392176 182.56917194 200.13711965 186.27425957 200.13140106 C188.25870087 200.12948017 190.24314508 200.13239163 192.22758484 200.13552856 C200.53322455 200.11627923 208.72430013 199.69588202 217 199 C215.3577202 195.43587539 213.90503935 193.96059469 210.5703125 191.8359375 C209.69246094 191.27132812 208.81460938 190.70671875 207.91015625 190.125 C206.99105469 189.5475 206.07195312 188.97 205.125 188.375 C204.21363281 187.78976562 203.30226563 187.20453125 202.36328125 186.6015625 C197.69922839 183.58545182 197.69922839 183.58545182 192.82373047 180.93994141 C191 180 191 180 189.125 178.0625 C187.08860753 175.8743954 187.08860753 175.8743954 184.34375 174.69140625 C180.43951012 172.71648117 176.95781721 170.37373194 173.375 167.875 C172.67930908 167.39289063 171.98361816 166.91078125 171.2668457 166.4140625 C154.51939779 154.74363461 154.51939779 154.74363461 151.46484375 151.23828125 C150.04291175 149.78793968 150.04291175 149.78793968 147.8359375 149.85546875 C147.02382813 149.96503906 146.21171875 150.07460938 145.375 150.1875 C144.4984375 150.30351562 143.621875 150.41953125 142.71875 150.5390625 C138.76786532 151.2088964 134.89510117 152.05763681 131 153 C134.88689398 162.46016524 149.05894997 168.04034298 158 172 C163.76731899 174.24958859 169.57475595 176.39509185 175.42773438 178.41137695 C176.52150391 178.80542725 177.61527344 179.19947754 178.7421875 179.60546875 C180.22501221 180.11823364 180.22501221 180.11823364 181.73779297 180.64135742 C184 182 184 182 184.82861328 184.6496582 C184.8851709 185.425271 184.94172852 186.20088379 185 187 C184.01 187 183.02 187 182 187 C181.67 189.31 181.34 191.62 181 194 C159.21072883 195.42724484 139.66733573 186.79110059 122.6640625 173.46484375 C115.96320235 167.26507432 109.94094795 159.75023748 108.4375 150.5625 C109.13564922 146.14088827 110.40670997 145.10589892 113.8515625 142.4765625 C116.89037225 140.38807143 119.95478908 138.34838479 123.08203125 136.39453125 C125.26680092 134.97545934 125.26680092 134.97545934 127 132 C121.2251626 126.7887028 121.2251626 126.7887028 115.25 121.8125 C113 120 113 120 110.3125 117.25 C106.76695243 113.80027804 105.7094202 115.02956126 102.10546875 117.7109375 Z M-93 162 C-105.5828789 171.15239436 -118.18927963 180.26591599 -131.2265625 188.765625 C-132.25487183 189.43911987 -132.25487183 189.43911987 -133.30395508 190.1262207 C-134.60420534 190.97508957 -135.90850387 191.81780286 -137.2175293 192.65307617 C-140.50636473 194.79923061 -142.75121909 196.80617028 -145 200 C-132.7500114 200.0314179 -120.50002345 200.05125532 -108.25 200.0625 C-107.32421646 200.06335602 -106.39843292 200.06421204 -105.44459534 200.06509399 C-74.87656542 200.08998207 -44.31547447 199.89213681 -13.75 199.5 C-12.35117332 199.48206327 -12.35117332 199.48206327 -10.92408752 199.46376419 C0.38406749 199.3179722 11.69208896 199.16361971 23 199 C20.21619778 196.752785 17.53113458 194.59089932 14.42578125 192.80859375 C13.76747314 192.42703125 13.10916504 192.04546875 12.4309082 191.65234375 C11.7318335 191.25144531 11.03275879 190.85054687 10.3125 190.4375 C8.79102074 189.55189003 7.27020931 188.66513191 5.75 187.77734375 C4.96753906 187.32085449 4.18507813 186.86436523 3.37890625 186.39404297 C-6.69161577 180.49270053 -16.61291021 174.48937241 -26.01318359 167.55859375 C-29.82447414 164.76653722 -33.72039897 162.36337779 -37.8125 160 C-43.22854709 156.75563643 -46.96396884 153.09238828 -51 148.27734375 C-53.72860003 145.17036364 -56.45945501 143.12432699 -60 141 C-70.11147759 141 -84.88672135 156.09499972 -93 162 Z " fill="#000000" transform="translate(493,210)"/>
    <path d="M0 0 C1.02993959 0.0003524 1.02993959 0.0003524 2.08068603 0.00071192 C4.38100214 0.0027371 6.68123154 0.01198594 8.98152924 0.02120399 C10.64861051 0.02418317 12.31569263 0.02671945 13.98277521 0.02885115 C18.56574769 0.03600988 23.14868302 0.04950853 27.73163724 0.06404209 C32.67769454 0.07863007 37.62376262 0.0873796 42.56983185 0.09687233 C52.27805844 0.11645251 61.98626358 0.14151579 71.69447219 0.16847537 C79.62135618 0.19037366 87.5482429 0.21021079 95.4751358 0.22859001 C96.60588717 0.23121214 97.73663854 0.23383427 98.90165511 0.23653585 C101.1999597 0.24185436 103.49826431 0.24716714 105.79656893 0.25247426 C126.16125357 0.29970806 146.52592188 0.35208807 166.89058685 0.40709877 C186.49962735 0.46006826 206.10867242 0.50868973 225.71773529 0.55260658 C247.14022805 0.60058923 268.5627113 0.6513427 289.98518705 0.70643198 C292.29436715 0.7123654 294.60354725 0.71829675 296.91272736 0.724226 C298.61595633 0.72860358 298.61595633 0.72860358 300.35359398 0.73306959 C308.20306491 0.75307725 316.05253874 0.7712624 323.90201569 0.78873253 C364.81267231 0.88078947 405.72221847 0.98304319 446.62968171 1.53870609 C448.91802588 1.56941593 451.20638559 1.59856913 453.49475384 1.62742305 C457.62750845 1.68023531 461.76006488 1.74220881 465.89266205 1.80617714 C467.70935316 1.82957582 467.70935316 1.82957582 469.56274509 1.8534472 C470.65379519 1.87226819 471.74484529 1.89108918 472.86895752 1.9104805 C474.2869136 1.93220634 474.2869136 1.93220634 475.73351526 1.95437109 C477.97603607 2.11022377 477.97603607 2.11022377 479.97603607 3.11022377 C479.97603607 6.08022377 479.97603607 9.05022377 479.97603607 12.11022377 C476.19681615 13.99983373 474.9980324 14.36148224 471.01803207 14.3719368 C470.01289991 14.37940221 469.00776774 14.38686763 467.97217703 14.39455926 C466.31726932 14.39165728 466.31726932 14.39165728 464.62892914 14.38869667 C463.45382735 14.39448978 462.27872556 14.40028289 461.06801462 14.40625155 C457.79855234 14.42034476 454.52921488 14.42548759 451.25972694 14.42690116 C447.72227389 14.43059286 444.1848676 14.44574669 440.64744186 14.45947838 C434.48109432 14.48181834 428.31476343 14.49676527 422.14838409 14.50681114 C413.10132846 14.52155356 404.05433004 14.54743387 395.00730777 14.57568778 C378.24010096 14.62763712 361.47288032 14.66634085 344.70562935 14.70064652 C331.93593347 14.72683956 319.16625026 14.75655278 306.3965683 14.78881264 C304.57852213 14.79339042 302.76047596 14.79796694 300.94242978 14.80254221 C298.21672064 14.80940458 295.4910115 14.81626817 292.76530237 14.82313934 C260.6018338 14.90410235 228.43835187 14.97383338 196.27484208 15.03610218 C172.55327959 15.08203494 148.8317855 15.1372671 125.11028147 15.20769954 C107.5918266 15.25969755 90.07338507 15.3034393 72.55487442 15.33162308 C70.76325478 15.33453115 68.97163516 15.33745241 67.18001556 15.34038734 C66.30857289 15.34181169 65.43713021 15.34323604 64.53928018 15.34470356 C58.47589669 15.35532687 52.41256066 15.37322271 46.34920502 15.39422035 C39.17856341 15.41896706 32.00799709 15.43378676 24.83731079 15.43416274 C21.3303816 15.4345804 17.8236345 15.43939269 14.31674957 15.45780754 C10.64150603 15.47463038 6.96673074 15.47317507 3.29146576 15.46666908 C2.24501011 15.47588701 1.19855446 15.48510494 0.12038803 15.4946022 C-6.53184177 15.45627536 -13.06051635 15.07367135 -18.02396393 10.11022377 C-17.88088924 6.74796861 -17.66272544 4.79630095 -15.33646393 2.29772377 C-10.53826827 -0.16621454 -5.29270572 -0.01246976 0 0 Z " fill="#000000" transform="translate(264.02396392822266,517.8897762298584)"/>
    <path d="M0 0 C1.24986389 -0.00609109 1.24986389 -0.00609109 2.52497756 -0.01230523 C5.34158158 -0.02232039 8.15769541 -0.01078457 10.97428894 0.00050831 C13.00414393 -0.00222989 15.03399751 -0.0062799 17.06384754 -0.01153535 C22.66090712 -0.02216617 28.25780802 -0.0139648 33.85486078 -0.00278485 C39.88355883 0.00602776 45.91223544 -0.00237782 51.94093323 -0.00864697 C63.07493814 -0.01760412 74.20889052 -0.01295422 85.34288809 -0.00148315 C95.62754758 0.0090411 105.9121888 0.01359387 116.19685364 0.01222134 C117.21901517 0.01209529 117.21901517 0.01209529 118.26182643 0.0119667 C121.02781685 0.01161447 123.79380726 0.01123046 126.55979766 0.01080112 C152.52221424 0.00683348 178.4845985 0.01956612 204.44700582 0.04032768 C227.52764155 0.05869798 250.6082463 0.0645102 273.68888855 0.05905628 C275.17082536 0.05870985 276.65276217 0.05836375 278.13469899 0.05801799 C278.86733022 0.057847 279.59996144 0.057676 280.35479362 0.05749982 C284.042539 0.05664632 287.73028439 0.05582253 291.41802979 0.05503082 C292.50926435 0.0547952 292.50926435 0.0547952 293.62254406 0.05455482 C312.8920382 0.05056738 332.16152935 0.05603683 351.43102169 0.06454211 C353.50373239 0.06544918 355.57644309 0.06635483 357.64915379 0.06725735 C359.02421368 0.06785846 360.39927357 0.06846708 361.77433345 0.06908325 C371.37225476 0.07330954 380.9701702 0.07388084 390.56809214 0.07197776 C402.93509376 0.06953793 415.30206779 0.0737967 427.66906285 0.08918776 C433.63590377 0.09645232 439.60270112 0.10049129 445.56954575 0.0959444 C451.02466436 0.09188845 456.47969277 0.09697477 461.93479764 0.10957048 C463.91523066 0.11251499 465.89567211 0.11204153 467.87610304 0.1079274 C470.55450507 0.10286572 473.23259992 0.10994759 475.91098022 0.12025452 C476.6915796 0.11585803 477.47217897 0.11146155 478.27643287 0.10693184 C482.04761465 0.13484004 483.73659426 0.22879954 486.95549011 2.37473011 C486.47218328 8.77854569 486.47218328 8.77854569 484.33049011 11.24973011 C478.86701896 13.83769013 472.60310586 13.52026571 466.66422272 13.50615788 C465.85288873 13.50821051 465.04155475 13.51026314 464.20563489 13.51237798 C461.48775713 13.51803113 458.76993032 13.51659282 456.05204773 13.515172 C454.08346483 13.51775658 452.11488245 13.52077 450.14630079 13.52417541 C444.7370772 13.53223731 439.32786688 13.53403452 433.91863799 13.53477287 C428.08489486 13.53662475 422.25115859 13.5441726 416.41741943 13.55090809 C403.66363939 13.56448452 390.9098625 13.57051459 378.15607643 13.57491875 C370.19508421 13.5776814 362.23409321 13.58191871 354.27310181 13.58642292 C332.2367435 13.59866816 310.20038598 13.60894929 288.16402435 13.61229801 C286.7397377 13.61251964 285.31545105 13.61274143 283.89116439 13.61296336 C282.46346209 13.613184 281.0357598 13.61340449 279.6080575 13.61362481 C276.7438879 13.61406736 273.8797183 13.61451448 271.01554871 13.61496449 C270.30540426 13.61507388 269.59525981 13.61518327 268.86359584 13.61529597 C245.82392805 13.61892867 222.78429168 13.63485871 199.74463593 13.65815485 C175.38246784 13.6827432 151.02031771 13.69647031 126.65813684 13.69766593 C113.37877586 13.69851758 100.09944931 13.70435829 86.82009888 13.72248554 C75.51685642 13.73786094 64.21366788 13.74302202 52.91041696 13.73474744 C47.14150139 13.73083233 41.37269449 13.73181259 35.60379219 13.74580479 C30.32500169 13.75849151 25.04640208 13.75739234 19.76761204 13.74521407 C17.85586369 13.74324803 15.94410206 13.74637711 14.03237242 13.75505844 C11.43693445 13.76610036 8.84217627 13.75869858 6.24675751 13.74666691 C5.50187476 13.7542621 4.75699201 13.7618573 3.98953706 13.76968265 C-1.85758897 13.71103262 -6.80898538 12.61025462 -11.04450989 8.37473011 C-11.3879271 5.69607587 -11.47147752 4.06205104 -10.02776051 1.73799449 C-6.91888873 -0.39900933 -3.64165784 -0.03409961 0 0 Z " fill="#000000" transform="translate(258.0445098876953,500.62526988983154)"/>
    <path d="M0 0 C34.75049482 -0.09178145 69.50095824 -0.17004441 104.25156139 -0.20533342 C106.91239793 -0.20805227 109.57323447 -0.21077436 112.234071 -0.21349974 C114.19633573 -0.21549278 114.19633573 -0.21549278 116.19824217 -0.21752609 C125.42756877 -0.22760395 134.65686247 -0.245273 143.88617061 -0.26605101 C155.10205418 -0.2911339 166.31788905 -0.30568066 177.53380178 -0.30616773 C183.24370045 -0.30665415 188.95348919 -0.31190332 194.66336177 -0.32993002 C199.87191689 -0.34619969 205.08028484 -0.34871727 210.28885625 -0.3399101 C212.17752031 -0.33916104 214.06619434 -0.34354775 215.95483278 -0.35341341 C218.50804492 -0.36600025 221.060565 -0.36033546 223.61377071 -0.34982176 C224.72876744 -0.3619061 224.72876744 -0.3619061 225.86628936 -0.37423457 C228.77109356 -0.34599359 230.81375459 -0.29648045 233.28183483 1.31798296 C234.29400752 3.01767092 234.29400752 3.01767092 234.16900752 6.58017092 C233.29400752 10.01767092 233.29400752 10.01767092 230.29400752 12.01767092 C227.9006062 12.27247994 227.9006062 12.27247994 225.0015776 12.27938395 C223.344068 12.29058218 223.344068 12.29058218 221.65307336 12.30200665 C219.82329895 12.29910455 219.82329895 12.29910455 217.9565594 12.29614382 C216.01637968 12.30483242 216.01637968 12.30483242 214.0370044 12.31369655 C210.43383852 12.32955315 206.8307505 12.33293072 203.22755395 12.33434515 C199.33726797 12.33803466 195.44702489 12.35319896 191.55676387 12.36695986 C183.89076599 12.39226297 176.22478164 12.40692962 168.55875184 12.41827494 C159.4930537 12.43216405 150.42739575 12.45717043 141.36172403 12.48265824 C125.00347231 12.52832175 108.64521298 12.5647817 92.28692745 12.59579592 C76.75240605 12.62526372 61.21790765 12.65945881 45.68341182 12.70028811 C44.74578074 12.70274657 43.80814965 12.70520504 42.84210551 12.707738 C39.06238016 12.71765725 35.28265488 12.72760171 31.50292968 12.73757726 C-4.98435073 12.8337812 -41.47163201 12.90957859 -77.95899655 12.96533709 C-80.70204719 12.96953816 -83.44509782 12.97374186 -86.18814844 12.97795196 C-88.0099114 12.98074715 -89.83167436 12.98353394 -91.65343735 12.98631229 C-105.27173827 13.00721545 -118.89001731 13.03428758 -132.5082996 13.06491213 C-148.02047941 13.09979219 -163.53265263 13.12780381 -179.04486115 13.14623277 C-186.99768139 13.1558547 -194.95046611 13.16859526 -202.90326382 13.19014483 C-209.51717965 13.20806125 -216.131062 13.21931187 -222.7450026 13.22146292 C-226.0812162 13.22274891 -229.41727251 13.22832835 -232.75347425 13.24053078 C-236.34841222 13.25317113 -239.94314584 13.25350644 -243.53810002 13.25067263 C-244.57818846 13.25727518 -245.61827691 13.26387773 -246.68988319 13.27068036 C-259.49682938 13.22683402 -259.49682938 13.22683402 -263.70599248 9.01767092 C-263.83099248 5.39267092 -263.83099248 5.39267092 -263.70599248 2.01767092 C-260.4749487 0.40214903 -256.9368183 0.86366756 -253.38622929 0.85945253 C-252.5114317 0.85451385 -251.63663411 0.84957516 -250.7353275 0.84448682 C-247.77275164 0.82901731 -244.81019789 0.82071444 -241.84759404 0.81234865 C-239.71644668 0.80276981 -237.58530118 0.79277058 -235.45415761 0.78238421 C-229.57882555 0.7550952 -223.70348534 0.7341791 -217.82812382 0.71439843 C-212.80529567 0.69671961 -207.78248534 0.67545613 -202.75967146 0.65414821 C-186.97798539 0.58722191 -171.19627261 0.53097227 -155.41453694 0.4773176 C-148.26978079 0.45297038 -141.12502946 0.42732353 -133.98027782 0.40169457 C-93.806872 0.25787408 -53.63341356 0.13881753 -13.45988506 0.03514972 C-8.97325634 0.0235684 -4.48662801 0.01185046 0 0 Z " fill="#000000" transform="translate(510.705992475152,427.98232908174396)"/>
    <path d="M0 0 C7.98266258 -0.02188208 15.96533782 -0.03732774 23.94801752 -0.05143229 C30.25853042 -0.06301264 36.5689443 -0.0824207 42.87941245 -0.10865078 C46.55053771 -0.12187654 50.22163661 -0.12699687 53.89278344 -0.12941727 C55.52206222 -0.13214023 57.15133993 -0.13825616 58.78059033 -0.14825091 C60.94108977 -0.16115659 63.10125327 -0.16183119 65.26178149 -0.15930376 C67.02894361 -0.16455175 67.02894361 -0.16455175 68.83180598 -0.16990576 C72.57121754 0.1020285 75.60795615 0.92928733 79.16800097 2.07270613 C80.41800097 8.69770613 80.41800097 8.69770613 78.16800097 12.07270613 C75.58346621 12.45171365 75.58346621 12.45171365 72.23095683 12.45746699 C70.95697091 12.46692353 69.68298499 12.47638007 68.37039343 12.48612317 C66.94264804 12.48149196 65.51490352 12.47658537 64.08715991 12.47143355 C62.57975015 12.47686867 61.07234465 12.48361841 59.56494609 12.49157545 C55.40339681 12.50969863 51.24202508 12.50903119 47.08044557 12.50544598 C42.59307583 12.50482422 38.10576677 12.52142988 33.61842517 12.53596297 C25.81404219 12.55884559 18.00970404 12.570653 10.20528964 12.57509222 C-1.19187722 12.58158574 -12.58896497 12.60460058 -23.98609991 12.63143552 C-42.6258024 12.67485642 -61.2655016 12.70470312 -79.90524121 12.72627058 C-97.75714742 12.74695317 -115.60902352 12.7740537 -133.46090528 12.81025496 C-135.08919357 12.81354869 -135.08919357 12.81354869 -136.75037657 12.81690897 C-142.20968978 12.82798175 -147.66900276 12.83916613 -153.12831565 12.85039487 C-190.85712855 12.927801 -228.58592973 12.98611625 -266.31480094 13.02570691 C-288.9059544 13.04941425 -311.49699025 13.08393353 -334.08807331 13.14541226 C-342.27698602 13.16738313 -350.46591132 13.18279895 -358.65484103 13.19684454 C-365.17623415 13.2084464 -371.69753178 13.22787852 -378.21888181 13.25406304 C-382.03117494 13.26731545 -385.84344268 13.2724138 -389.65575667 13.27482953 C-391.35228627 13.27755244 -393.04881484 13.28366822 -394.74531718 13.29366317 C-397.00265154 13.30659781 -399.25966493 13.30723878 -401.5170271 13.30471602 C-403.36645571 13.30996401 -403.36645571 13.30996401 -405.25324651 13.31531801 C-409.35062461 13.03754731 -412.88087719 12.17178382 -416.83199903 11.07270613 C-418.1744099 4.60472646 -418.1744099 4.60472646 -416.73373803 2.36628493 C-414.01582172 0.51753549 -411.99116274 0.69351258 -408.71667501 0.68794527 C-407.42839775 0.67848873 -406.1401205 0.66903219 -404.81280454 0.65928909 C-403.37414364 0.66391999 -401.9354836 0.66882656 -400.49682447 0.67397871 C-398.97403923 0.66854212 -397.45125821 0.66179177 -395.92848404 0.65383681 C-391.7291979 0.63573306 -387.5300879 0.6363787 -383.33077189 0.63996628 C-378.80121393 0.64058851 -374.2717159 0.62397817 -369.74218579 0.60944929 C-361.86687746 0.58657765 -353.99161353 0.57476121 -346.11627408 0.57032004 C-334.61985091 0.56382591 -323.12350613 0.54081084 -311.6271146 0.51397674 C-292.83034896 0.47056841 -274.0335866 0.44071329 -255.23678418 0.41914168 C-237.22569851 0.39844501 -219.21464256 0.3713351 -201.20358106 0.3351573 C-200.10769513 0.33296148 -199.01180921 0.33076566 -197.88271462 0.32850329 C-192.37176223 0.3174312 -186.86081008 0.30624704 -181.34985801 0.29501739 C-143.34890432 0.21777148 -105.34796233 0.15942774 -67.34695121 0.11970535 C-44.89790317 0.09622973 -22.44897481 0.06236428 0 0 Z " fill="#000000" transform="translate(664.8319990262389,463.9272938705981)"/>
    <path d="M0 0 C0.83553016 -0.00376113 1.67106033 -0.00752226 2.53190958 -0.01139736 C5.35628025 -0.02040308 8.18015446 -0.00785516 11.00450706 0.00444412 C13.03991179 0.00242145 15.07531557 -0.00091594 17.11071622 -0.00546145 C22.72304299 -0.0141441 28.33520539 -0.00401203 33.94751787 0.00908089 C39.99253417 0.01994395 46.03753467 0.01357155 52.08255577 0.00929642 C62.56255694 0.00430435 73.04251136 0.01032595 83.52250099 0.02418137 C94.5169075 0.0387 105.51129227 0.04746691 116.50570869 0.04836655 C117.53038512 0.04845819 117.53038512 0.04845819 118.57576208 0.04855168 C121.34852192 0.04878119 124.12128175 0.04896837 126.89404159 0.04909982 C152.17537451 0.05031182 177.45667698 0.06602154 202.73799706 0.0906868 C226.62243956 0.11398456 250.50686358 0.12815386 274.39131737 0.13170242 C275.49515525 0.1318697 275.49515525 0.1318697 276.62129289 0.13204035 C279.5880335 0.13248919 282.55477411 0.13293117 285.52151471 0.13337278 C286.99986922 0.13359315 288.47822373 0.13381444 289.95657824 0.13403665 C291.43123196 0.13425801 292.90588569 0.13447678 294.38053941 0.13469296 C317.83929533 0.13820473 341.29804775 0.14966557 364.75680018 0.16249929 C371.63141476 0.16622203 378.5060291 0.16948583 385.38064432 0.17174816 C399.8407793 0.17655136 414.30090327 0.18375226 428.7610314 0.19989583 C434.74381538 0.20652287 440.72658943 0.21157195 446.70937729 0.21235657 C452.17670373 0.21313915 457.64400501 0.21850285 463.11132364 0.22767606 C465.09845117 0.23019993 467.0855817 0.23101103 469.07271059 0.23001727 C471.75525534 0.22893405 474.4377194 0.23389588 477.12025452 0.24050903 C477.90771226 0.23873956 478.69517001 0.23697009 479.50649011 0.235147 C484.82012668 0.25777736 484.82012668 0.25777736 485.93428612 1.3719368 C486.12178612 4.8094368 486.12178612 4.8094368 485.93428612 8.3719368 C483.37150827 10.93471464 482.39293836 10.63879844 478.82956314 10.68464756 C477.19369598 10.71259787 477.19369598 10.71259787 475.52478099 10.74111283 C473.70879905 10.75660182 473.70879905 10.75660182 471.8561306 10.77240372 C470.5739821 10.79074418 469.2918336 10.80908464 467.97083211 10.82798088 C464.38085693 10.87838979 460.79084884 10.91543662 457.20068851 10.9498025 C454.88725889 10.97295901 452.57389983 10.99975275 450.26052451 11.02779162 C407.87511575 11.54136022 365.48562109 11.6318785 323.09766054 11.74112296 C316.2973283 11.75870963 309.49700027 11.77766525 302.69667244 11.79687309 C283.75798578 11.85019309 264.8192971 11.90232835 245.88059235 11.94884396 C244.08800935 11.95324738 244.08800935 11.95324738 242.25921255 11.95773976 C239.83871643 11.96367949 237.41822031 11.96961797 234.99772419 11.9755552 C233.19635897 11.97997576 233.19635897 11.97997576 231.35860252 11.98448563 C230.15619037 11.98743536 228.95377821 11.99038509 227.71492933 11.99342421 C208.05358401 12.04190908 188.39227957 12.10003905 168.73097314 12.16218331 C148.40659267 12.22629852 128.08220295 12.28289075 107.75777996 12.33175117 C96.3991868 12.35922318 85.04062239 12.38984889 73.68206215 12.42876625 C64.06463125 12.46167523 54.44721303 12.48768766 44.82974018 12.50462254 C39.9311344 12.51345131 35.03259416 12.52554651 30.13402367 12.54643059 C25.65219292 12.56545875 21.17044218 12.57516613 16.68857251 12.57745407 C15.06872051 12.57991764 13.44886932 12.585789 11.82904412 12.59542712 C-3.08891977 12.68077584 -3.08891977 12.68077584 -10.06571388 10.3719368 C-11.39796687 3.95289966 -11.39796687 3.95289966 -10.08935225 1.6647141 C-6.92274886 -0.35823281 -3.63931615 -0.03531193 0 0 Z " fill="#000000" transform="translate(258.0657138824463,446.6280632019043)"/>
    <path d="M0 0 C0.8357651 -0.00175304 1.67153019 -0.00350607 2.5326215 -0.00531223 C5.36366749 -0.01000441 8.19466284 -0.00749852 11.02571106 -0.00507832 C13.0636636 -0.00694467 15.10161577 -0.00924466 17.13956738 -0.01194364 C22.76356897 -0.01808972 28.38755577 -0.01792477 34.01155996 -0.01674926 C40.06751837 -0.01654596 46.12347193 -0.02205718 52.1794281 -0.02680683 C64.05247371 -0.03512906 75.92551451 -0.0378753 87.79856229 -0.03841921 C97.44380847 -0.03887818 107.08905305 -0.04093355 116.73429871 -0.04411983 C119.50740782 -0.04501733 122.28051694 -0.04590714 125.05362606 -0.04679471 C126.08762968 -0.04712628 126.08762968 -0.04712628 127.14252226 -0.04746456 C146.53966597 -0.05362119 165.93680912 -0.05756487 185.33395386 -0.05712128 C186.06570436 -0.0571057 186.79745486 -0.05709012 187.55137961 -0.05707407 C191.26047738 -0.05699096 194.96957514 -0.05689192 198.67867291 -0.05678936 C199.41535803 -0.05676942 200.15204315 -0.05674947 200.91105206 -0.05672892 C202.40080907 -0.05668848 203.89056609 -0.05664669 205.3803231 -0.05660353 C228.56819631 -0.05599052 251.75605492 -0.06350107 274.94392395 -0.07717609 C300.97441547 -0.0925211 327.00489739 -0.10114329 353.03539371 -0.10021287 C355.80850283 -0.10013824 358.58161195 -0.10008953 361.35472107 -0.10005856 C362.03756956 -0.1000469 362.72041805 -0.10003525 363.42395892 -0.10002324 C374.43454342 -0.09999241 385.44511528 -0.10639062 396.45569602 -0.11499082 C407.51193828 -0.12344838 418.56816568 -0.12429989 429.62441039 -0.1178815 C435.61947767 -0.11460101 441.61449893 -0.11461427 447.60956192 -0.12323475 C453.08933417 -0.13103361 458.56902338 -0.12973691 464.04879344 -0.12095062 C466.03933517 -0.11940091 468.0298829 -0.12128628 470.02041757 -0.12681069 C472.71005466 -0.13378547 475.39939346 -0.12864518 478.08901978 -0.12025452 C478.8757407 -0.1252227 479.66246163 -0.13019088 480.47302258 -0.13530961 C485.81621369 -0.09966174 485.81621369 -0.09966174 488.04450989 2.12863445 C487.46758681 8.70555753 487.46758681 8.70555753 486.04450989 10.12863445 C483.43124552 10.22936264 480.84431895 10.26409121 478.23047829 10.25726891 C476.98154336 10.25989846 476.98154336 10.25989846 475.70737743 10.26258114 C472.8809876 10.26728121 470.05464832 10.26476544 467.22825623 10.26234722 C465.19600424 10.26421319 463.16375261 10.26651302 461.13150156 10.26921254 C455.51857279 10.27536356 449.90565884 10.2751931 444.29272747 10.27401817 C438.25036575 10.27381499 432.2080089 10.27932496 426.16564941 10.28407574 C414.31686306 10.29240095 402.46808152 10.29514435 390.61929299 10.29568812 C380.99310089 10.296147 371.36691041 10.29820192 361.74071884 10.30138874 C358.97354106 10.30228623 356.20636328 10.30317605 353.4391855 10.30406362 C352.75132786 10.30428467 352.06347023 10.30450571 351.35476842 10.30473346 C331.99656607 10.31089093 312.63836428 10.31483369 293.2801609 10.31439018 C292.54975247 10.3143746 291.81934403 10.31435903 291.06680201 10.31434297 C287.36447792 10.31425986 283.66215384 10.31416082 279.95982976 10.31405827 C279.22448644 10.31403832 278.48914312 10.31401838 277.73151666 10.31399783 C276.24447201 10.31395739 274.75742735 10.31391559 273.2703827 10.31387244 C250.1296558 10.31325955 226.98894354 10.32076724 203.84822083 10.334445 C177.87192959 10.34979231 151.89564799 10.35841203 125.91935194 10.35748178 C123.15154545 10.35740714 120.38373896 10.35735844 117.61593246 10.35732746 C116.93438805 10.35731581 116.25284363 10.35730415 115.55064635 10.35729215 C104.5634502 10.35726132 93.57626672 10.36365826 82.58907434 10.37225973 C71.55397666 10.38072024 60.51889388 10.3815666 49.48379375 10.3751504 C43.50076108 10.3718713 37.51777453 10.37187825 31.53474617 10.38050365 C26.06475058 10.38830866 20.59483813 10.38699933 15.12484471 10.37821952 C13.1389659 10.37667118 11.15308106 10.3785502 9.16720934 10.3840796 C6.48144471 10.39106634 3.79597775 10.38590436 1.11022377 10.37752342 C0.32744836 10.3824916 -0.45532706 10.38745978 -1.26182294 10.39257851 C-5.03815655 10.36742197 -6.73240711 10.27735645 -9.95549011 8.12863445 C-10.14299011 4.50363445 -10.14299011 4.50363445 -9.95549011 1.12863445 C-6.81186087 -0.44318017 -3.45120784 -0.00901633 0 0 Z " fill="#000000" transform="translate(256.9554901123047,483.8713655471802)"/>
    <path d="M0 0 C47.08232034 -0.01710973 94.16464092 -0.03303146 141.2469635 -0.04234314 C141.94323579 -0.0424812 142.63950808 -0.04261925 143.35687953 -0.04276149 C158.48691171 -0.04575405 173.61694393 -0.04852428 188.74697619 -0.05106533 C196.16619703 -0.05231272 203.58541785 -0.05360927 211.00463867 -0.05493164 C211.7429602 -0.0550624 212.48128173 -0.05519316 213.24197665 -0.05532788 C237.19488199 -0.05959307 261.14778498 -0.06710724 285.10068889 -0.07629722 C309.70503197 -0.08572004 334.30937375 -0.09188317 358.9137186 -0.09391499 C362.38488287 -0.09420317 365.85604712 -0.0945288 369.32721138 -0.09487724 C370.35202475 -0.09497838 370.35202475 -0.09497838 371.39754142 -0.09508156 C382.41772808 -0.0962656 393.43791073 -0.1009099 404.45809575 -0.10683203 C415.52352277 -0.11270522 426.58894673 -0.11489027 437.65437549 -0.11350138 C443.65536863 -0.11285766 449.65634994 -0.11387926 455.657341 -0.11920547 C461.1414363 -0.12403768 466.62551171 -0.12433984 472.10960788 -0.12089889 C474.10288342 -0.12047302 476.09616015 -0.12177026 478.0894333 -0.12488318 C480.78030424 -0.12884417 483.47110151 -0.12676527 486.16197109 -0.12304783 C486.95189073 -0.12567484 487.74181036 -0.12830186 488.55566695 -0.13100848 C493.8858542 -0.1141458 493.8858542 -0.1141458 495 1 C495.04092937 3.33297433 495.04241723 5.66705225 495 8 C447.77463193 8.90314395 400.56377294 9.15189078 353.33062871 9.13529945 C346.51795653 9.13297457 339.70528683 9.13274742 332.89261436 9.13381577 C331.90396403 9.133969 330.91531369 9.13412223 329.89670425 9.13428011 C327.88514458 9.13459999 325.8735849 9.13492421 323.86202522 9.1352527 C305.22665928 9.13806931 286.59129835 9.13488136 267.95593324 9.12945233 C252.13704219 9.12498572 236.31815849 9.12576661 220.49926758 9.13037109 C201.90264205 9.13578196 183.30602084 9.13779715 164.70939463 9.13475883 C162.70824254 9.13444045 160.70709044 9.13412607 158.70593834 9.13381577 C157.72260803 9.13366149 156.73927773 9.13350721 155.72614953 9.13334826 C148.95922993 9.13250255 142.19231322 9.13392084 135.42539406 9.13629532 C90.27316256 9.15081684 45.14395692 8.91588529 0 8 C0 5.36 0 2.72 0 0 Z " fill="#000000" transform="translate(248,794)"/>
    <path d="M0 0 C4.95 0 9.9 0 15 0 C15.02716824 2.54173977 15.04691969 5.08318415 15.0625 7.625 C15.07087891 8.33785156 15.07925781 9.05070313 15.08789062 9.78515625 C15.09111328 10.48769531 15.09433594 11.19023438 15.09765625 11.9140625 C15.10289307 12.5529541 15.10812988 13.1918457 15.11352539 13.85009766 C14.96894244 16.58815676 14.45076127 19.29543235 14 22 C21.92 22 29.84 22 38 22 C38 14.74 38 7.48 38 0 C42.95 0 47.9 0 53 0 C53 19.14 53 38.28 53 58 C47.72 58 42.44 58 37 58 C36.97285566 55.2915983 36.95309154 52.58347279 36.9375 49.875 C36.92912109 49.11445312 36.92074219 48.35390625 36.91210938 47.5703125 C36.90888672 46.82265625 36.90566406 46.075 36.90234375 45.3046875 C36.89710693 44.62390137 36.89187012 43.94311523 36.88647461 43.24169922 C37.02668594 40.4730531 37.54425409 37.73447549 38 35 C30.41 35 22.82 35 15 35 C15.36845574 42.19548981 15.36845574 42.19548981 15.74829102 49.39038086 C15.79139404 50.28120361 15.83449707 51.17202637 15.87890625 52.08984375 C15.9260376 53.00628662 15.97316895 53.92272949 16.02172852 54.86694336 C16 57 16 57 15 58 C13.14453125 58.1328125 13.14453125 58.1328125 10.8125 58.125 C9.67748047 58.12886719 9.67748047 58.12886719 8.51953125 58.1328125 C5.65866509 57.98200715 2.82585891 57.47097649 0 57 C0 38.19 0 19.38 0 0 Z " fill="#000000" transform="translate(690,561)"/>
    <path d="M0 0 C5.28 0 10.56 0 16 0 C17.25050287 2.50100574 17.02993449 4.00343052 16.87890625 6.7890625 C16.83056641 7.73007812 16.78222656 8.67109375 16.73242188 9.640625 C16.67634766 10.62546875 16.62027344 11.6103125 16.5625 12.625 C16.51029297 13.61757813 16.45808594 14.61015625 16.40429688 15.6328125 C16.27441051 18.08884568 16.13943836 20.5444936 16 23 C16.37850098 22.38108887 16.75700195 21.76217773 17.14697266 21.12451172 C20.23571467 16.13191862 23.43461383 12.40322178 28.0703125 8.80078125 C30.23273159 6.97814292 30.23273159 6.97814292 31.6953125 3.81640625 C34 1 34 1 35.90869141 0.51782227 C38.21623855 0.409024 40.44492635 0.47591563 42.75 0.625 C43.93916016 0.66560547 43.93916016 0.66560547 45.15234375 0.70703125 C47.10273366 0.77752727 49.05171901 0.88514501 51 1 C51 1.99 51 2.98 51 4 C49.3823266 5.10139465 47.76302709 6.20045854 46.13671875 7.2890625 C39.60854177 12.51637789 34.71999076 20.14840052 30 27 C34.92604403 34.11386805 40.09595987 40.47292227 46.09375 46.6875 C48 49 48 49 48 52 C48.66 52 49.32 52 50 52 C51.38938077 53.96147874 52.7260411 55.96166576 54 58 C49.34534771 61.10310153 44.45253882 60.62630513 39 60 C35.875 58.0625 35.875 58.0625 34 56 C33.01 55.505 33.01 55.505 32 55 C31.72414063 54.27167969 31.44828125 53.54335938 31.1640625 52.79296875 C29.74521345 49.38868328 27.7746491 47.10447268 25.375 44.3125 C21 39.21293375 21 39.21293375 21 37 C19.68 37.66 18.36 38.32 17 39 C16.90883174 44.41944653 16.88608985 49.73973458 17.5625 55.125 C17.706875 56.40375 17.85125 57.6825 18 59 C17 60 17 60 13.62109375 60.09765625 C12.22652923 60.09098369 10.83198257 60.07902532 9.4375 60.0625 C8.72658203 60.05798828 8.01566406 60.05347656 7.28320312 60.04882812 C5.52209987 60.03700864 3.76103964 60.01907263 2 60 C0.91319917 55.78965307 1.09068265 51.97007054 1.4375 47.6875 C2.08191984 38.4195527 2.08721102 29.15981254 2.0625 19.875 C2.0606369 19.14107025 2.0587738 18.4071405 2.05685425 17.65097046 C2.04465351 13.43393534 2.0252351 9.21697998 2 5 C1.34 5 0.68 5 0 5 C0 3.35 0 1.7 0 0 Z " fill="#000000" transform="translate(249,560)"/>
    <path d="M0 0 C0.66 0.99 1.32 1.98 2 3 C1.401875 3.70125 0.80375 4.4025 0.1875 5.125 C-1.97740961 7.97030977 -3.49596636 10.76632767 -5 14 C-6.9375 13.625 -6.9375 13.625 -9 13 C-9.495 12.01 -9.495 12.01 -10 11 C-14.80603519 9.44966607 -20.00819059 9.9127645 -25 10 C-25.33 11.32 -25.66 12.64 -26 14 C-24.24623047 14.59748047 -24.24623047 14.59748047 -22.45703125 15.20703125 C-20.90875185 15.74189141 -19.36058041 16.27706417 -17.8125 16.8125 C-17.04357422 17.07353516 -16.27464844 17.33457031 -15.48242188 17.60351562 C-11.38508932 19.0279102 -7.53565968 20.41379602 -4 23 C-4 23.66 -4 24.32 -4 25 C-3.401875 25.20625 -2.80375 25.4125 -2.1875 25.625 C1.01568719 27.63843195 1.72796751 29.43830904 3 33 C3.6694028 37.96809789 3.55871073 41.79318482 1.4375 46.375 C-1.52626207 49.56674377 -4.08146597 51.11329843 -8 53 C-8.66 53 -9.32 53 -10 53 C-10 53.66 -10 54.32 -10 55 C-18.06622022 58.18897078 -27.12939169 57.53426969 -35.0625 54.125 C-37.93100192 52.68020308 -40.56531461 51.11711773 -43 49 C-42.59791618 43.37082652 -40.71069698 40.99613521 -37 37 C-35.948125 37.433125 -35.948125 37.433125 -34.875 37.875 C-29.20590609 40.0933411 -24.77772847 41.24108922 -18.625 41.125 C-16.75714844 41.09792969 -16.75714844 41.09792969 -14.8515625 41.0703125 C-13.91054688 41.04710937 -12.96953125 41.02390625 -12 41 C-12 39.35 -12 37.7 -12 36 C-13.01707031 35.76216797 -13.01707031 35.76216797 -14.0546875 35.51953125 C-24.99760463 32.77622377 -33.25190701 29.34827561 -40 20 C-42.0147681 15.97046379 -40.6324149 10.94217036 -39.28515625 6.8046875 C-37.03260326 1.71952495 -33.96341296 -1.46387013 -29 -4 C-20.46467758 -7.08324422 -7.56987816 -4.62160982 0 0 Z " fill="#000000" transform="translate(657,564)"/>
    <path d="M0 0 C4.29 0 8.58 0 13 0 C13.68359375 3.09244792 14.3671875 6.18489583 15.05078125 9.27734375 C15.36402344 10.17582031 15.67726563 11.07429687 16 12 C16.99 12.33 17.98 12.66 19 13 C20.36284788 15.41633534 21.54490304 17.77042909 22.6875 20.2890625 C23.03127686 21.02571136 23.37505371 21.76236023 23.72924805 22.52133179 C24.82926171 24.88483163 25.91461732 27.25475111 27 29.625 C27.73084433 31.1996491 28.46260476 32.77387336 29.1953125 34.34765625 C31.14915526 38.55667932 33.09294165 42.76955177 35 47 C35.29567871 47.64475281 35.59135742 48.28950562 35.89599609 48.95379639 C37.18007881 51.82222605 38 53.81888597 38 57 C34.99686252 58.50156874 32.20932478 58.09281204 28.875 58.0625 C27.59367188 58.05347656 26.31234375 58.04445313 24.9921875 58.03515625 C23.51105469 58.01775391 23.51105469 58.01775391 22 58 C21.72285156 57.36191406 21.44570313 56.72382812 21.16015625 56.06640625 C20.79792969 55.24011719 20.43570313 54.41382813 20.0625 53.5625 C19.70285156 52.73878906 19.34320312 51.91507813 18.97265625 51.06640625 C18.16877677 49.05589883 18.16877677 49.05589883 17 48 C15.21928754 47.91273777 13.4351686 47.89300959 11.65234375 47.90234375 C10.57275391 47.90556641 9.49316406 47.90878906 8.38085938 47.91210938 C6.67639648 47.92467773 6.67639648 47.92467773 4.9375 47.9375 C3.22723633 47.94426758 3.22723633 47.94426758 1.48242188 47.95117188 C-1.34507418 47.9630024 -4.17254345 47.9809385 -7 48 C-7.99 51.3 -8.98 54.6 -10 58 C-14.62 58 -19.24 58 -24 58 C-25 55 -25 55 -24.37915039 53.19067383 C-24.03875732 52.53607178 -23.69836426 51.88146973 -23.34765625 51.20703125 C-22.98349609 50.49482422 -22.61933594 49.78261719 -22.24414062 49.04882812 C-21.85419922 48.31083984 -21.46425781 47.57285156 -21.0625 46.8125 C-20.67642578 46.06291016 -20.29035156 45.31332031 -19.89257812 44.54101562 C-18.93728243 42.68939311 -17.96978423 40.84407548 -17 39 C-16.34 39 -15.68 39 -15 39 C-14.82984375 38.47792969 -14.6596875 37.95585938 -14.484375 37.41796875 C-11.64965981 28.80827527 -8.64239287 20.30465575 -5 12 C-3.32472418 8.00355888 -1.66349027 4.0013685 0 0 Z M5 20 C4.15973604 21.76755526 3.32801278 23.53917263 2.5 25.3125 C2.0359375 26.29863281 1.571875 27.28476562 1.09375 28.30078125 C-0.18777472 30.97800126 -0.18777472 30.97800126 0 34 C4.29 34 8.58 34 13 34 C11.7290827 30.1872481 10.66918099 27.09374991 8.875 23.625 C8.52179687 22.93664062 8.16859375 22.24828125 7.8046875 21.5390625 C7.53914062 21.03117188 7.27359375 20.52328125 7 20 C6.34 20 5.68 20 5 20 Z " fill="#000000" transform="translate(551,561)"/>
    <path d="M0 0 C3.3 0 6.6 0 10 0 C14 8.625 14 8.625 14 12 C14.66 12 15.32 12 16 12 C16.77900679 13.47487846 17.54767059 14.95521999 18.3125 16.4375 C18.74175781 17.26121094 19.17101562 18.08492187 19.61328125 18.93359375 C20.71254322 21.36435613 21.51325308 23.59435821 22.28515625 26.12890625 C24.17566566 31.96858806 27.13611568 37.16118525 30.125 42.5 C30.95064453 44.00046875 30.95064453 44.00046875 31.79296875 45.53125 C34.02675492 50.02776145 34.02675492 50.02776145 37 54 C37 55.65 37 57.3 37 59 C31.72 59 26.44 59 21 59 C19.68 55.7 18.36 52.4 17 49 C9.08 49 1.16 49 -7 49 C-8.98 53.95 -8.98 53.95 -11 59 C-13.6875 60.125 -13.6875 60.125 -17 60 C-18.6250269 60.01861733 -20.25002864 60.03954122 -21.875 60.0625 C-23.25006609 60.0466164 -24.62511713 60.02749766 -26 60 C-26 57 -26 57 -24.6875 54.875 C-23.26518552 52.45179756 -22.53227192 50.6897258 -21.7421875 48.0546875 C-19.8376156 42.19710766 -17.14766265 36.77004218 -14.4375 31.25 C-13.45563116 29.23505665 -12.47511308 27.2194544 -11.49609375 25.203125 C-11.06482178 24.32301758 -10.6335498 23.44291016 -10.18920898 22.53613281 C-9.02633442 20.05616136 -7.99076248 17.55299745 -7 15 C-6.34 15 -5.68 15 -5 15 C-4.87753906 14.28457031 -4.75507813 13.56914063 -4.62890625 12.83203125 C-3.98864625 9.94887287 -3.06448444 7.41407527 -1.9375 4.6875 C-1.57527344 3.80449219 -1.21304687 2.92148437 -0.83984375 2.01171875 C-0.56269531 1.34785156 -0.28554688 0.68398438 0 0 Z M4 21 C2.99770632 23.14478916 1.99807145 25.29074722 1 27.4375 C0.443125 28.63246094 -0.11375 29.82742188 -0.6875 31.05859375 C-2.06791472 33.61537653 -2.06791472 33.61537653 -2 35 C2.62 35 7.24 35 12 35 C9.7913035 27.63108111 9.7913035 27.63108111 6 21 C5.34 21 4.68 21 4 21 Z " fill="#000000" transform="translate(347,560)"/>
    <path d="M0 0 C0 0.66 0 1.32 0 2 C0.5775 2.20625 1.155 2.4125 1.75 2.625 C5.31539635 4.80385333 7.25498055 8.07536641 8.75 11.9375 C8.8325 12.618125 8.915 13.29875 9 14 C9.144375 15.0725 9.28875 16.145 9.4375 17.25 C8.84385449 22.33839006 6.46204814 25.32269498 3 29 C2.01 29.495 2.01 29.495 1 30 C1.4763075 34.28676746 3.98085758 36.11809132 7 39 C12 44.24390244 12 44.24390244 12 49 C0.5308311 50.67730929 0.5308311 50.67730929 -4 48 C-5.71216756 45.84611845 -7.17798229 43.64067931 -8.60546875 41.2890625 C-9.06566406 40.53367187 -9.52585937 39.77828125 -10 39 C-10.61294922 37.92878906 -10.61294922 37.92878906 -11.23828125 36.8359375 C-13.43232952 34.24102061 -13.43232952 34.24102061 -20 33 C-20 38.61 -20 44.22 -20 50 C-24.29 50 -28.58 50 -33 50 C-33 33.17 -33 16.34 -33 -1 C-9 -2 -9 -2 0 0 Z M-21 10 C-21 13.96 -21 17.92 -21 22 C-18.1846875 22.061875 -18.1846875 22.061875 -15.3125 22.125 C-14.25675781 22.14820313 -13.20101563 22.17140625 -12.11328125 22.1953125 C-8.97748141 21.99858729 -6.82354627 21.33057654 -4 20 C-3.67 17.69 -3.34 15.38 -3 13 C-8.80809887 9.12793409 -14.13926657 9.77130889 -21 10 Z " fill="#000000" transform="translate(283,640)"/>
    <path d="M0 0 C30.2287613 -0.79367288 30.2287613 -0.79367288 37.078125 4.65234375 C41.28233683 9.2985872 42.35560014 13.53200234 42.28515625 19.7109375 C41.84223476 23.26644424 40.32825076 25.34838108 38 28 C37.278125 28.350625 36.55625 28.70125 35.8125 29.0625 C33.76525318 29.88582341 33.76525318 29.88582341 32.9375 32.3125 C32.71876238 35.17054861 32.71876238 35.17054861 35 37.3125 C35.45761719 37.71855469 35.91523437 38.12460937 36.38671875 38.54296875 C38.32937702 40.2974761 40.06408562 42.17717379 41.8125 44.125 C42.41707031 44.78757812 43.02164063 45.45015625 43.64453125 46.1328125 C45 48 45 48 45 51 C39.81690949 52.25650679 34.08580264 52.92801944 29 51 C27.91015625 49.36328125 27.91015625 49.36328125 27.0625 47.3125 C23.92063005 40.43370214 23.92063005 40.43370214 17.90234375 36.1875 C15.95722163 35.69350073 13.97865251 35.33536483 12 35 C12.16371094 35.69480469 12.32742188 36.38960937 12.49609375 37.10546875 C13.35771309 42.05477056 13.05510398 46.98553819 13 52 C9.04 51.67 5.08 51.34 1 51 C0.68938056 44.38004206 0.38642462 37.75979469 0.09057617 31.13916016 C-0.0111555 28.88678524 -0.11498346 26.634504 -0.22094727 24.38232422 C-0.37286316 21.1457312 -0.51724571 17.9088766 -0.66015625 14.671875 C-0.70906509 13.66445251 -0.75797394 12.65703003 -0.80836487 11.61907959 C-0.8484819 10.67840637 -0.88859894 9.73773315 -0.92993164 8.76855469 C-0.98655724 7.52945343 -0.98655724 7.52945343 -1.04432678 6.26531982 C-1.00033436 4.01708737 -0.63694953 2.14930725 0 0 Z M12 12 C11.97311849 13.64574566 11.95365877 15.29161413 11.9375 16.9375 C11.92589844 17.85402344 11.91429687 18.77054688 11.90234375 19.71484375 C11.74050951 21.96593327 11.74050951 21.96593327 13 23 C14.9562593 23.09927286 16.91622909 23.12969729 18.875 23.125 C19.94492187 23.12757813 21.01484375 23.13015625 22.1171875 23.1328125 C25.07019169 23.12784318 25.07019169 23.12784318 28 22 C28.33 19.69 28.66 17.38 29 15 C26.51565563 12.65709108 25.22268407 12.02017066 21.765625 11.70703125 C20.02539062 11.75923828 20.02539062 11.75923828 18.25 11.8125 C17.07953125 11.83957031 15.9090625 11.86664062 14.703125 11.89453125 C13.81109375 11.92933594 12.9190625 11.96414063 12 12 Z " fill="#000000" transform="translate(561,638)"/>
    <path d="M0 0 C3.96 0 7.92 0 12 0 C12 6.27 12 12.54 12 19 C18.27 19 24.54 19 31 19 C31 12.73 31 6.46 31 0 C35.29 0 39.58 0 44 0 C44.78962241 10.56996839 45.1604727 21.07922792 45.13037109 31.6784668 C45.1248795 33.98818147 45.13042724 36.29771207 45.13671875 38.60742188 C45.13605999 40.08072959 45.13478306 41.5540372 45.1328125 43.02734375 C45.13168457 44.34468506 45.13055664 45.66202637 45.12939453 47.01928711 C45 50 45 50 44 51 C42.00200428 51.09873816 40.00042842 51.12971799 38 51.125 C36.906875 51.12757813 35.81375 51.13015625 34.6875 51.1328125 C32 51 32 51 31 50 C30.89969781 47.77270128 30.87034054 45.54205117 30.875 43.3125 C30.87242187 42.09175781 30.86984375 40.87101563 30.8671875 39.61328125 C31 36 31 36 32 30 C26.39 30 20.78 30 15 30 C15 30.99 15 31.98 15 33 C14.01 33 13.02 33 12 33 C12 38.94 12 44.88 12 51 C8.04 51 4.08 51 0 51 C0 34.17 0 17.34 0 0 Z " fill="#000000" transform="translate(697,638)"/>
    <path d="M0 0 C7.425 -0.0309375 7.425 -0.0309375 15 -0.0625 C16.54558594 -0.071604 18.09117187 -0.08070801 19.68359375 -0.09008789 C26.21266654 -0.10325134 32.55120355 -0.06640254 39 1 C38.67 4.3 38.34 7.6 38 11 C32.4897515 13.32492213 27.48887115 13.23374511 21.625 13.125 C20.23474609 13.11146484 20.23474609 13.11146484 18.81640625 13.09765625 C16.54399923 13.07422937 14.2721382 13.04142748 12 13 C12 14.98 12 16.96 12 19 C13.2684375 18.98259766 13.2684375 18.98259766 14.5625 18.96484375 C20.81560618 18.91510313 26.82005931 19.03059754 33 20 C33 23.3 33 26.6 33 30 C26.34362157 31.23839599 19.7528064 31.09139136 13 31 C13 33.64 13 36.28 13 39 C21.58 39 30.16 39 39 39 C40 43 40 43 39 51 C25.8 51 12.6 51 -1 51 C-0.67 34.17 -0.34 17.34 0 0 Z " fill="#000000" transform="translate(434,638)"/>
    <path d="M0 0 C25 0 25 0 37 1 C37 4.63 37 8.26 37 12 C28.42 12 19.84 12 11 12 C11 14.64 11 17.28 11 20 C12.08539063 19.98839844 13.17078125 19.97679687 14.2890625 19.96484375 C15.73437327 19.95545862 17.17968591 19.94635919 18.625 19.9375 C19.33785156 19.92912109 20.05070312 19.92074219 20.78515625 19.91210938 C24.97344438 19.89289704 28.8728462 20.1732673 33 21 C33 23.97 33 26.94 33 30 C25.74 30 18.48 30 11 30 C11 32.97 11 35.94 11 39 C19.91 39 28.82 39 38 39 C38 43.29 38 47.58 38 52 C33.91662052 52.02726292 29.83342764 52.04696522 25.75 52.0625 C24.04070312 52.07506836 24.04070312 52.07506836 22.296875 52.08789062 C21.1625 52.09111328 20.028125 52.09433594 18.859375 52.09765625 C17.31975098 52.10551147 17.31975098 52.10551147 15.74902344 52.11352539 C10.48865468 51.95423446 5.24460107 51.43705009 0 51 C0 34.17 0 17.34 0 0 Z " fill="#000000" transform="translate(316,638)"/>
    <path d="M0 0 C1.58409994 0.11487748 3.16728963 0.24234508 4.75 0.375 C6.07257813 0.47941406 6.07257813 0.47941406 7.421875 0.5859375 C15.05703039 1.81218973 18.59118071 8.1977197 23 14 C25.07765351 16.95356854 27.07603234 19.94428665 29 23 C29.09087891 21.13794922 29.09087891 21.13794922 29.18359375 19.23828125 C29.26803623 17.59634423 29.35268236 15.95441768 29.4375 14.3125 C29.47681641 13.49587891 29.51613281 12.67925781 29.55664062 11.83789062 C29.59853516 11.04189453 29.64042969 10.24589844 29.68359375 9.42578125 C29.72025146 8.69786377 29.75690918 7.96994629 29.79467773 7.2199707 C30.01938776 4.79037706 30.52148387 2.39258065 31 0 C34.63 0 38.26 0 42 0 C42.02485795 5.26529604 42.04293442 10.53055735 42.05493164 15.79589844 C42.05993714 17.58431596 42.06674355 19.37272943 42.07543945 21.16113281 C42.08767166 23.74284874 42.09326628 26.32451021 42.09765625 28.90625 C42.10281754 29.69616333 42.10797882 30.48607666 42.11329651 31.29992676 C42.11379207 36.28751558 41.71069415 41.06202819 41 46 C36.08721612 46.34871535 32.38721847 46.15891449 28.5078125 42.91796875 C26.22337954 40.35278898 24.09215841 37.72351982 22 35 C21.00459307 33.85017433 20.00554901 32.70346679 19 31.5625 C17 29 17 29 16 26 C14.59894424 24.57142881 14.59894424 24.57142881 12.9375 23.3125 C11.968125 22.549375 10.99875 21.78625 10 21 C10.15847412 21.55719727 10.31694824 22.11439453 10.48022461 22.68847656 C11.03570147 25.15877011 11.208468 27.45553604 11.31640625 29.984375 C11.37924805 31.38623047 11.37924805 31.38623047 11.44335938 32.81640625 C11.48267578 33.78449219 11.52199219 34.75257813 11.5625 35.75 C11.60568359 36.73355469 11.64886719 37.71710937 11.69335938 38.73046875 C11.79921949 41.15348927 11.90009312 43.57672672 12 46 C8.04 46 4.08 46 0 46 C-1.17719326 43.64561349 -1.08905996 42.35233185 -1.02172852 39.73388672 C-1.00163223 38.85312469 -0.98153595 37.97236267 -0.96083069 37.06491089 C-0.93379562 36.11278717 -0.90676056 35.16066345 -0.87890625 34.1796875 C-0.85529526 33.20589142 -0.83168427 32.23209534 -0.80735779 31.22879028 C-0.73062849 28.11071528 -0.646644 24.99288288 -0.5625 21.875 C-0.5092886 19.76433489 -0.45654814 17.65365785 -0.40429688 15.54296875 C-0.27500087 10.36182823 -0.13974366 5.18086868 0 0 Z " fill="#000000" transform="translate(411,713)"/>
    <path d="M0 0 C5.29037223 4.42005221 9.63231742 8.74267054 10.80078125 15.765625 C11.32580252 23.19092575 8.43604191 29.70451159 3.86328125 35.453125 C-2.72082538 41.84201553 -7.51839089 42.8835673 -16.5625 42.7890625 C-21.3396458 42.340063 -25.0370367 40.88256621 -29.13671875 38.453125 C-29.13671875 37.793125 -29.13671875 37.133125 -29.13671875 36.453125 C-29.74 36.21207031 -30.34328125 35.97101562 -30.96484375 35.72265625 C-35.15968627 33.27063499 -36.66121751 28.92045287 -38.13671875 24.453125 C-39.01441849 18.10668072 -39.36702585 11.44686403 -35.53125 6.01171875 C-26.00438157 -4.63595774 -12.3822779 -8.96413537 0 0 Z M-26.13671875 13.453125 C-27.1080573 17.3384792 -26.88268865 20.97758014 -25.0703125 24.5625 C-22.57878503 27.84832914 -20.29951354 29.83335449 -16.19921875 30.640625 C-11.55843377 30.84510403 -8.87068147 29.08886339 -5.13671875 26.453125 C-4.49734375 26.040625 -3.85796875 25.628125 -3.19921875 25.203125 C-1.32482737 22.11589215 -1.4264117 18.87734107 -2.13671875 15.453125 C-5.58735273 10.88610944 -9.97667159 7.91557093 -15.69921875 7.078125 C-20.02478739 7.7435971 -23.36349271 10.13306566 -26.13671875 13.453125 Z " fill="#000000" transform="translate(681.13671875,716.546875)"/>
    <path d="M0 0 C1.53125 1.3515625 1.53125 1.3515625 2.53125 4.3515625 C3.19125 4.3515625 3.85125 4.3515625 4.53125 4.3515625 C7.86138965 11.9038435 10.05684816 19.0647907 8.53125 27.3515625 C5.91477315 32.84437178 1.80424541 36.47538319 -3.46875 39.3515625 C-4.12875 39.3515625 -4.78875 39.3515625 -5.46875 39.3515625 C-5.46875 40.0115625 -5.46875 40.6715625 -5.46875 41.3515625 C-10.70101381 44.51378019 -16.56948137 44.02980177 -22.46875 43.3515625 C-29.63175107 40.75945872 -34.3360427 34.73447752 -38.28125 28.4765625 C-40.58562134 22.41242739 -41.16770723 17.44686718 -39.03125 11.2265625 C-36.11745458 4.76597473 -31.23762147 0.43957611 -24.84375 -2.5234375 C-15.6494034 -5.5882197 -8.18393382 -5.29357624 0 0 Z M-26.34375 13.1640625 C-28.0229601 16.42919325 -27.90596578 18.72891745 -27.46875 22.3515625 C-25.85554279 25.40513329 -24.43814098 27.58989816 -21.71875 29.7265625 C-17.38314138 30.93089823 -13.49429473 31.36045451 -9.4296875 29.3359375 C-6.245264 27.16057001 -4.71903356 26.10241317 -3.46875 22.3515625 C-2.78722014 16.40038268 -2.78722014 16.40038268 -5.78125 11.4765625 C-13.60411349 5.29104253 -19.25276686 6.30944546 -26.34375 13.1640625 Z " fill="#000000" transform="translate(331.46875,716.6484375)"/>
    <path d="M0 0 C0.890625 1.87109375 0.890625 1.87109375 1 4 C-0.46850986 6.86273712 -2.4543232 9.04135289 -5 11 C-8.28130534 11 -10.10437638 10.44781181 -13 9 C-14.70702735 8.93003986 -16.41668003 8.91559846 -18.125 8.9375 C-19.03507812 8.94652344 -19.94515625 8.95554687 -20.8828125 8.96484375 C-21.93082031 8.98224609 -21.93082031 8.98224609 -23 9 C-23.66 10.32 -24.32 11.64 -25 13 C-23.783125 13.4125 -22.56625 13.825 -21.3125 14.25 C-20.49910156 14.52585937 -19.68570312 14.80171875 -18.84765625 15.0859375 C-16.80705724 15.74094459 -14.74970056 16.3446055 -12.68359375 16.9140625 C-0.91750134 20.20696208 -0.91750134 20.20696208 2 25 C3.0085958 29.56060708 3.48835133 33.534946 2 38 C0.3777546 39.70993434 -1.29413425 41.37347684 -3 43 C-3.680625 43.721875 -4.36125 44.44375 -5.0625 45.1875 C-9.60940097 49.44105252 -13.81416584 49.36054845 -19.82421875 49.2578125 C-26.44004033 48.72073473 -32.5318321 46.82771753 -38 43 C-37.55530671 37.96014269 -35.28656638 35.62365012 -32 32 C-27.25 32.875 -27.25 32.875 -25 34 C-22.95944995 34.07065617 -20.91665743 34.08421976 -18.875 34.0625 C-17.77929688 34.05347656 -16.68359375 34.04445313 -15.5546875 34.03515625 C-14.71164062 34.02355469 -13.86859375 34.01195312 -13 34 C-12.67 33.01 -12.34 32.02 -12 31 C-12.70125 30.82984375 -13.4025 30.6596875 -14.125 30.484375 C-31.1399776 26.13815789 -31.1399776 26.13815789 -36 19 C-37.24222279 13.8476934 -36.98115743 9.75240377 -34.375 5.09765625 C-29.32142042 -1.57345165 -29.32142042 -1.57345165 -25.65234375 -2.7578125 C-6.74334406 -4.48440746 -6.74334406 -4.48440746 0 0 Z " fill="#000000" transform="translate(411,641)"/>
    <path d="M0 0 C3.50368904 -0.6231858 6.52325337 -0.85357252 10 0 C12.73983955 2.97007817 14.26997593 6.37674204 16 10 C16.7425 11.0725 17.485 12.145 18.25 13.25 C20.08839013 16.13889877 20.95940868 18.74815213 22 22 C22.62624041 23.30127877 23.27369415 24.59247699 23.9375 25.875 C25.31759653 28.54386315 26.45765298 31.16067055 27.4375 34 C28.7751968 37.77527764 30.72019241 40.86894727 33.01171875 44.140625 C34 46 34 46 34 50 C29.05 50 24.1 50 19 50 C17.68 47.03 16.36 44.06 15 41 C13.515 41.020625 12.03 41.04125 10.5 41.0625 C5.9054504 41.06904494 1.54144993 40.6728074 -3 40 C-3.66 43.3 -4.32 46.6 -5 50 C-8.47330128 50.69466026 -10.91302863 51.12011816 -14.3125 51.0625 C-16.1378125 51.0315625 -16.1378125 51.0315625 -18 51 C-19.28617662 47.14147015 -18.42756222 46.04085969 -16.8125 42.375 C-16.34714844 41.30636719 -15.88179688 40.23773437 -15.40234375 39.13671875 C-14.93957031 38.10160156 -14.47679687 37.06648437 -14 36 C-13.63003906 35.16082031 -13.26007813 34.32164062 -12.87890625 33.45703125 C-12.22268572 31.97351324 -11.56268421 30.49166043 -10.8984375 29.01171875 C-10.08138314 27.18222746 -9.28927669 25.34164561 -8.5 23.5 C-7.70277909 21.63981787 -6.89701848 19.78241002 -6.03125 17.953125 C-3.30215969 12.1227957 -1.54064547 6.24428277 0 0 Z M5 18 C2.70954986 22.81209901 2.70954986 22.81209901 2 28 C4.97 28 7.94 28 11 28 C10.57742724 26.5164999 10.13643678 25.03823576 9.6875 23.5625 C9.44386719 22.73878906 9.20023438 21.91507813 8.94921875 21.06640625 C8.47935547 20.04353516 8.47935547 20.04353516 8 19 C7.01 18.67 6.02 18.34 5 18 Z " fill="#000000" transform="translate(508,639)"/>
    <path d="M0 0 C3.3 0 6.6 0 10 0 C10 15.18 10 30.36 10 46 C2 46 2 46 -0.609375 43.98046875 C-1.39828125 42.99691406 -2.1871875 42.01335938 -3 41 C-3.49177734 40.41041504 -3.98355469 39.82083008 -4.49023438 39.21337891 C-6.10545887 37.26785789 -7.68074105 35.29522791 -9.25 33.3125 C-9.79140625 32.63638672 -10.3328125 31.96027344 -10.890625 31.26367188 C-14.86383929 26.27232143 -14.86383929 26.27232143 -16 24 C-16.33 31.26 -16.66 38.52 -17 46 C-20.3 46 -23.6 46 -27 46 C-28.46907481 31.04691712 -28.09464921 16.00554027 -28 1 C-20.78334418 0.51837996 -20.78334418 0.51837996 -17.3125 2.65234375 C-16.549375 3.40644531 -15.78625 4.16054688 -15 4.9375 C-14.16597656 5.7521875 -13.33195313 6.566875 -12.47265625 7.40625 C-2.63953488 17.72093023 -2.63953488 17.72093023 -1 21 C-0.67 14.07 -0.34 7.14 0 0 Z " fill="#000000" transform="translate(733,713)"/>
    <path d="M0 0 C26.33032874 -0.48659745 26.33032874 -0.48659745 33.4375 5.125 C37.11930278 8.73257288 38.91868423 11.98902447 40 17 C40.21011719 17.85851562 40.42023438 18.71703125 40.63671875 19.6015625 C41.62505566 25.21531613 41.20462391 28.53430515 38 33.3125 C32.89445251 39.68430431 28.29640564 44.54720891 20 46 C16.51499457 46.22186821 13.05264145 46.19033022 9.5625 46.125 C8.64017578 46.11597656 7.71785156 46.10695313 6.76757812 46.09765625 C4.51144191 46.0742766 2.25586316 46.04150916 0 46 C-1.40027356 14.88598505 -1.40027356 14.88598505 0 0 Z M11 11 C11 18.59 11 26.18 11 34 C18.74591011 34.15779983 18.74591011 34.15779983 25.9765625 31.87890625 C28.4101037 29.25324338 29.33808683 26.47632007 29.625 23 C29.35223005 19.44035221 28.2755081 16.84162926 25.765625 14.1875 C21.49607573 11.31594474 16.02350065 11 11 11 Z " fill="#000000" transform="translate(469,713)"/>
    <path d="M0 0 C1.93166016 0.01740234 1.93166016 0.01740234 3.90234375 0.03515625 C5.19269531 0.04417969 6.48304688 0.05320312 7.8125 0.0625 C8.81152344 0.07410156 9.81054688 0.08570313 10.83984375 0.09765625 C12.6048976 6.06437028 13.02083637 11.00914595 12.59765625 17.19140625 C12.55043427 18.02353638 12.50321228 18.8556665 12.45455933 19.7130127 C12.30275554 22.3420528 12.13409457 24.96968764 11.96484375 27.59765625 C11.85825413 29.39186085 11.75277463 31.18613176 11.6484375 32.98046875 C11.39378627 37.35400256 11.11631036 41.72523053 10.83984375 46.09765625 C21.06984375 46.09765625 31.29984375 46.09765625 41.83984375 46.09765625 C41.83984375 50.38765625 41.83984375 54.67765625 41.83984375 59.09765625 C26.98984375 59.09765625 12.13984375 59.09765625 -3.16015625 59.09765625 C-4.45351139 56.51094597 -4.28721701 54.64218841 -4.28955078 51.74584961 C-4.29427902 50.06917458 -4.29427902 50.06917458 -4.29910278 48.35862732 C-4.29707855 47.1471553 -4.29505432 45.93568329 -4.29296875 44.6875 C-4.29392548 43.44972305 -4.2948822 42.21194611 -4.29586792 40.93666077 C-4.29672424 37.64413715 -4.29268941 34.35166045 -4.28710938 31.05914307 C-4.28515682 29.03575137 -4.28710398 27.01240299 -4.29052734 24.98901367 C-4.29667874 21.11765506 -4.29596339 17.24636122 -4.29296875 13.375 C-4.29499298 12.16150375 -4.29701721 10.94800751 -4.29910278 9.69773865 C-4.29595062 8.58310745 -4.29279846 7.46847626 -4.28955078 6.32006836 C-4.28875519 5.3334874 -4.28795959 4.34690643 -4.28713989 3.33042908 C-4.08611773 -0.2041744 -3.63137805 0.11221811 0 0 Z " fill="#000000" transform="translate(461.16015625,559.90234375)"/>
    <path d="M0 0 C4.43678284 1.74425017 8.49526731 3.73523099 12 7 C12.32421875 9.73828125 12.32421875 9.73828125 12 12 C11.01 12.33 10.02 12.66 9 13 C7.62804426 14.29355827 6.28817344 15.62298702 5 17 C3.88625 16.505 2.7725 16.01 1.625 15.5 C-4.23783995 13.31315028 -10.1632023 12.81800096 -16 15.25 C-18.18837138 17.16482496 -18.95677137 18.30422338 -20 21 C-20.24110759 24.05014928 -20.24110759 24.05014928 -20.125 27.25 C-20.09792969 28.86648438 -20.09792969 28.86648438 -20.0703125 30.515625 C-20.04710937 31.33546875 -20.02390625 32.1553125 -20 33 C-19.4225 33.28875 -18.845 33.5775 -18.25 33.875 C-16.84231362 34.57884319 -15.44835641 35.31170105 -14.078125 36.0859375 C-11.591093 37.17985759 -9.45272316 37.41162712 -6.75 37.625 C-5.85796875 37.69976563 -4.9659375 37.77453125 -4.046875 37.8515625 C-3.37140625 37.90054688 -2.6959375 37.94953125 -2 38 C-1.67 37.01 -1.34 36.02 -1 35 C1.5625 33.5 1.5625 33.5 5 33 C7.92267012 34.33277955 10.44315403 36.06614188 13 38 C12.70271215 41.16865337 11.9204038 42.07601885 9.56640625 44.32421875 C8.07947266 45.49404297 8.07947266 45.49404297 6.5625 46.6875 C5.57378906 47.47511719 4.58507812 48.26273438 3.56640625 49.07421875 C-0.61193722 52.20956629 -3.86750772 52.59796027 -9 52 C-18.76421045 49.42605341 -25.83055696 45.70055873 -31.0546875 36.96484375 C-34.04542935 30.74854974 -34.00250176 23.13895885 -31.75 16.6875 C-29.49556678 10.91364603 -25.57661121 7.41863648 -20.375 4.25 C-19.41335938 3.65703125 -18.45171875 3.0640625 -17.4609375 2.453125 C-11.79929638 -0.88993928 -6.48806911 -0.86087648 0 0 Z " fill="#000000" transform="translate(660,637)"/>
    <path d="M0 0 C3.96 0 7.92 0 12 0 C12.01401855 1.29417847 12.01401855 1.29417847 12.02832031 2.61450195 C12.07235722 5.8186184 12.13397894 9.02177728 12.20751953 12.2253418 C12.23572797 13.61128396 12.25694333 14.99738696 12.27099609 16.38354492 C12.29242421 18.37707404 12.34117014 20.37025046 12.390625 22.36328125 C12.41157227 23.56251221 12.43251953 24.76174316 12.45410156 25.99731445 C12.71812919 29.08149992 12.71812919 29.08149992 14.90429688 30.8828125 C18.24770331 32.66513168 21.24571218 32.68714268 25 33 C25.33 32.01 25.66 31.02 26 30 C26.66 30 27.32 30 28 30 C27.82597656 28.74316406 27.65195312 27.48632812 27.47265625 26.19140625 C26.86548612 20.7268751 27.10593745 15.41399864 27.4375 9.9375 C27.48970703 8.97650391 27.54191406 8.01550781 27.59570312 7.02539062 C27.7238814 4.68322396 27.86100391 2.34154959 28 0 C31.96 0 35.92 0 40 0 C40.07493036 3.96516109 40.12896449 7.93004014 40.16479492 11.89575195 C40.18705458 13.89744576 40.22520146 15.89894275 40.26367188 17.90039062 C40.385562 34.03051703 40.385562 34.03051703 34.7578125 40.62890625 C28.46026546 45.25395934 23.76123255 47.05888952 15.890625 46.52734375 C10.84929177 45.60764107 8.32803351 43.32803351 4.8125 39.8125 C-0.5417666 31.50415528 -0.37982026 23.07816954 -0.1875 13.4375 C-0.17396484 12.14263672 -0.16042969 10.84777344 -0.14648438 9.51367188 C-0.11137656 6.34226635 -0.0575784 3.17107715 0 0 Z " fill="#000000" transform="translate(355,713)"/>
    <path d="M0 0 C2.99431898 -0.36138333 5.09224761 -0.58644023 8 0 C12.93959387 3.96610281 15.74899646 9.84714603 18.3125 15.5 C18.65861328 16.22058594 19.00472656 16.94117188 19.36132812 17.68359375 C21.44103586 22.16733011 22.55289935 26.07541313 23 31 C23.66 31 24.32 31 25 31 C25.86343824 33.12124966 26.71550648 35.24713072 27.5625 37.375 C28.27599609 39.15003906 28.27599609 39.15003906 29.00390625 40.9609375 C30 44 30 44 29 46 C24.71 46 20.42 46 16 46 C15.01 41.05 15.01 41.05 14 36 C12.329375 36.2475 12.329375 36.2475 10.625 36.5 C5.73257748 37.12251254 0.92735214 37.06843545 -4 37 C-4.33 39.97 -4.66 42.94 -5 46 C-9.29 46 -13.58 46 -18 46 C-17.21323103 41.27938619 -16.41377572 38.19488482 -14.5625 33.9375 C-14.13066406 32.93589844 -13.69882812 31.93429687 -13.25390625 30.90234375 C-12.84011719 29.94457031 -12.42632813 28.98679687 -12 28 C-11.32748131 26.33568608 -10.65873529 24.66981737 -10 23 C-9.34 23 -8.68 23 -8 23 C-7.89042969 22.39671875 -7.78085937 21.7934375 -7.66796875 21.171875 C-7.43013672 19.97304688 -7.43013672 19.97304688 -7.1875 18.75 C-6.96126953 17.56664062 -6.96126953 17.56664062 -6.73046875 16.359375 C-5.91250787 13.71740511 -4.65500852 12.19541947 -3 10 C-2.01310803 7.42967443 -2.01310803 7.42967443 -1.3125 4.75 C-1.06113281 3.85796875 -0.80976562 2.9659375 -0.55078125 2.046875 C-0.36902344 1.37140625 -0.18726563 0.6959375 0 0 Z M4 16 C3.01 19.3 2.02 22.6 1 26 C3.97 26 6.94 26 10 26 C8.35 22.7 6.7 19.4 5 16 C4.67 16 4.34 16 4 16 Z " fill="#000000" transform="translate(536,713)"/>
    <path d="M0 0 C10.89 0 21.78 0 33 0 C33 3.63 33 7.26 33 11 C25.74 11 18.48 11 11 11 C11 13.64 11 16.28 11 19 C17.27 19 23.54 19 30 19 C30 22.3 30 25.6 30 29 C24.06 29 18.12 29 12 29 C12.03957481 34.54973121 12.03957481 34.54973121 12.09008789 40.09936523 C12.09723091 42.06645974 12.05031893 44.03353621 12 46 C11.505 46.495 11.505 46.495 11 47 C8.41520597 46.86302801 5.86651124 46.55441267 3.29516602 46.26147461 C2.53776123 46.17518799 1.78035645 46.08890137 1 46 C0.15806088 35.48952436 -0.12727001 25.10510956 -0.0625 14.5625 C-0.041875 9.756875 -0.02125 4.95125 0 0 Z " fill="#000000" transform="translate(250,713)"/>
    <path d="M0 0 C1.93742341 -0.02703381 3.87495479 -0.04641125 5.8125 -0.0625 C6.89144531 -0.07410156 7.97039062 -0.08570313 9.08203125 -0.09765625 C12 0 12 0 15 1 C15 20.14 15 39.28 15 59 C11.37810828 59.72437834 8.76234736 60.11585593 5.1875 60.0625 C4.39730469 60.05347656 3.60710937 60.04445313 2.79296875 60.03515625 C2.20128906 60.02355469 1.60960937 60.01195312 1 60 C-0.47117485 40.03405567 -0.09463973 20.00538284 0 0 Z " fill="#000000" transform="translate(411,560)"/>
    <path d="M0 0 C4.45831922 -0.02933699 8.91661318 -0.04691123 13.375 -0.0625 C14.62667969 -0.07087891 15.87835937 -0.07925781 17.16796875 -0.08789062 C24.19503908 -0.1062861 31.02302186 0.1528908 38 1 C38 4.3 38 7.6 38 11 C33.71 11 29.42 11 25 11 C25.24556641 13.06894531 25.24556641 13.06894531 25.49609375 15.1796875 C26.12813231 21.50007307 26.11046486 27.77888021 26.0625 34.125 C26.05798828 35.27226563 26.05347656 36.41953125 26.04882812 37.6015625 C26.03716339 40.40109813 26.02079614 43.20051986 26 46 C24.741875 46.185625 23.48375 46.37125 22.1875 46.5625 C21.12595703 46.71912109 21.12595703 46.71912109 20.04296875 46.87890625 C18 47 18 47 15 46 C13.87179684 39.7920016 13.62041467 33.66916442 13.375 27.375 C13.3234375 26.24320313 13.271875 25.11140625 13.21875 23.9453125 C13.17492187 22.85734375 13.13109375 21.769375 13.0859375 20.6484375 C13.0451709 19.66020996 13.0044043 18.67198242 12.96240234 17.65380859 C13 15 13 15 14 11 C9.38 11 4.76 11 0 11 C0 7.37 0 3.74 0 0 Z " fill="#000000" transform="translate(565,713)"/>
    <path d="M0 0 C3.63 0 7.26 0 11 0 C13.33707865 5.84269663 13.33707865 5.84269663 13 10 C12.67 10.66 12.34 11.32 12 12 C11.99553409 14.39986865 12.05096878 16.76470983 12.15625 19.16015625 C12.18223267 19.86522812 12.20821533 20.57029999 12.23498535 21.29673767 C12.31826215 23.55221856 12.40834459 25.80734497 12.5 28.0625 C12.62042123 31.032365 12.73414317 34.0023748 12.84375 36.97265625 C12.88900818 38.00544456 12.88900818 38.00544456 12.93518066 39.05909729 C12.99572185 40.70509358 13.00319645 42.35289381 13 44 C12 45 12 45 9.49609375 45.09765625 C8.48675781 45.08605469 7.47742188 45.07445312 6.4375 45.0625 C5.42558594 45.05347656 4.41367187 45.04445313 3.37109375 45.03515625 C2.19740234 45.01775391 2.19740234 45.01775391 1 45 C-0.22031898 40.24962333 -0.12723661 35.62833736 -0.09765625 30.76171875 C-0.0962413 29.88095169 -0.09482635 29.00018463 -0.09336853 28.09272766 C-0.08778937 25.29094997 -0.07524071 22.48925338 -0.0625 19.6875 C-0.05748231 17.78320428 -0.05291987 15.87890731 -0.04882812 13.97460938 C-0.03782677 9.31637519 -0.02057649 4.65820133 0 0 Z " fill="#000000" transform="translate(615,714)"/>
</svg>
